<svg xmlns="http://www.w3.org/2000/svg" xmlns:xlink="http://www.w3.org/1999/xlink" width="40" zoomAndPan="magnify" viewBox="0 0 30 30.000001" height="40" preserveAspectRatio="xMidYMid meet" version="1.0"><defs><clipPath id="fda805e1f4"><path d="M 0.484375 5.261719 L 29.515625 5.261719 L 29.515625 24.132812 L 0.484375 24.132812 Z M 0.484375 5.261719 " clip-rule="nonzero"/></clipPath></defs><g clip-path="url(#fda805e1f4)"><path fill="#c74634" d="M 9.738281 24.132812 C 7.242188 24.199219 4.828125 23.234375 3.039062 21.457031 C 1.253906 19.679688 0.246094 17.242188 0.246094 14.695312 C 0.246094 12.148438 1.253906 9.707031 3.039062 7.929688 C 4.828125 6.152344 7.242188 5.1875 9.738281 5.253906 L 20.492188 5.253906 C 22.902344 5.320312 25.195312 6.339844 26.878906 8.105469 C 28.5625 9.867188 29.503906 12.230469 29.503906 14.695312 C 29.503906 17.15625 28.5625 19.519531 26.878906 21.28125 C 25.195312 23.046875 22.902344 24.070312 20.492188 24.132812 Z M 20.25 20.808594 C 21.871094 20.863281 23.445312 20.242188 24.609375 19.089844 C 25.773438 17.941406 26.433594 16.355469 26.433594 14.699219 C 26.433594 13.046875 25.773438 11.460938 24.609375 10.308594 C 23.445312 9.15625 21.871094 8.539062 20.25 8.589844 L 9.972656 8.589844 C 8.417969 8.640625 6.945312 9.308594 5.863281 10.449219 C 4.78125 11.589844 4.175781 13.113281 4.175781 14.699219 C 4.175781 16.289062 4.78125 17.8125 5.863281 18.953125 C 6.945312 20.09375 8.417969 20.757812 9.972656 20.808594 Z M 20.25 20.808594 " fill-opacity="1" fill-rule="evenodd"/></g></svg>