<svg xmlns="http://www.w3.org/2000/svg" xmlns:xlink="http://www.w3.org/1999/xlink" width="400" zoomAndPan="magnify" viewBox="0 0 300 299.999988" height="400" preserveAspectRatio="xMidYMid meet" version="1.0"><defs><clipPath id="fc9f43d866"><path d="M 14.25 0 L 285.75 0 C 289.53125 0 293.152344 1.5 295.828125 4.171875 C 298.5 6.847656 300 10.46875 300 14.25 L 300 285.75 C 300 289.53125 298.5 293.152344 295.828125 295.828125 C 293.152344 298.5 289.53125 300 285.75 300 L 14.25 300 C 10.46875 300 6.847656 298.5 4.171875 295.828125 C 1.5 293.152344 0 289.53125 0 285.75 L 0 14.25 C 0 10.46875 1.5 6.847656 4.171875 4.171875 C 6.847656 1.5 10.46875 0 14.25 0 " clip-rule="nonzero"/></clipPath><clipPath id="8bb5805139"><path d="M 99 69 L 263 69 L 263 231.523438 L 99 231.523438 Z M 99 69 " clip-rule="nonzero"/></clipPath></defs><g clip-path="url(#fc9f43d866)"><rect x="-30" width="360" fill="#242938" y="-29.999999" height="359.999986" fill-opacity="1"/><rect x="-30" width="360" fill="#242938" y="-29.999999" height="359.999986" fill-opacity="1"/></g><g clip-path="url(#8bb5805139)"><path fill="#f89939" d="M 230.109375 206.839844 C 266.746094 170.132812 272.835938 116.726562 243.707031 87.542969 C 214.585938 58.367188 161.277344 64.46875 124.640625 101.171875 C 88.003906 137.875 98.601562 208 111.042969 220.464844 C 121.09375 230.539062 193.472656 243.542969 230.109375 206.839844 Z M 230.109375 206.839844 " fill-opacity="1" fill-rule="nonzero"/></g><path fill="#3499cd" d="M 79.773438 153.800781 C 58.515625 132.507812 27.585938 128.960938 10.679688 145.894531 C -6.21875 162.828125 -2.683594 193.820312 18.574219 215.113281 C 39.835938 236.414062 80.449219 230.253906 87.660156 223.019531 C 93.5 217.179688 101.035156 175.097656 79.773438 153.800781 Z M 79.773438 153.800781 " fill-opacity="1" fill-rule="nonzero"/><path fill="#ffffff" d="M 153.109375 197.84375 C 149.355469 201.304688 146.0625 203.863281 143.230469 205.503906 C 140.398438 207.152344 137.699219 207.972656 135.128906 207.972656 C 132.171875 207.972656 129.789062 206.828125 127.980469 204.53125 C 126.171875 202.230469 125.269531 199.148438 125.269531 195.269531 C 125.269531 189.460938 126.527344 182.484375 129.039062 174.351562 C 131.550781 166.210938 134.605469 158.710938 138.195312 151.851562 L 148.71875 147.945312 C 149.050781 147.835938 149.300781 147.78125 149.46875 147.78125 C 150.265625 147.78125 150.925781 148.371094 151.433594 149.542969 C 151.945312 150.722656 152.199219 152.308594 152.199219 154.300781 C 152.199219 159.945312 150.902344 165.410156 148.304688 170.695312 C 145.707031 175.984375 141.648438 181.628906 136.125 187.632812 C 135.902344 190.511719 135.792969 192.488281 135.792969 193.570312 C 135.792969 195.976562 136.234375 197.886719 137.117188 199.296875 C 138 200.710938 139.175781 201.414062 140.640625 201.414062 C 142.132812 201.414062 143.71875 200.878906 145.40625 199.800781 C 147.085938 198.71875 149.65625 196.476562 153.109375 193.070312 Z M 137.242188 181.617188 C 140.75 177.707031 143.597656 173.328125 145.777344 168.480469 C 147.960938 163.628906 149.046875 159.457031 149.046875 155.960938 C 149.046875 154.941406 148.898438 154.113281 148.597656 153.492188 C 148.292969 152.871094 147.902344 152.554688 147.433594 152.554688 C 146.417969 152.554688 144.929688 155.105469 142.980469 160.203125 C 141.03125 165.304688 139.121094 172.441406 137.242188 181.617188 Z M 137.242188 181.617188 " fill-opacity="1" fill-rule="nonzero"/><path fill="#ffffff" d="M 184.105469 197.84375 C 180.597656 201.304688 177.449219 203.863281 174.660156 205.503906 C 171.867188 207.152344 168.792969 207.972656 165.417969 207.972656 C 161.664062 207.972656 158.632812 206.769531 156.320312 204.363281 C 154.015625 201.953125 152.863281 198.789062 152.863281 194.855469 C 152.863281 188.992188 154.894531 183.683594 158.957031 178.9375 C 163.015625 174.1875 167.519531 171.816406 172.464844 171.816406 C 175.03125 171.816406 177.089844 172.484375 178.636719 173.8125 C 180.183594 175.140625 180.957031 176.882812 180.957031 179.042969 C 180.957031 184.773438 174.882812 189.417969 162.726562 192.988281 C 163.832031 198.382812 166.71875 201.085938 171.386719 201.085938 C 173.210938 201.085938 174.949219 200.59375 176.605469 199.613281 C 178.265625 198.628906 180.761719 196.445312 184.105469 193.074219 Z M 162.394531 190.164062 C 169.464844 188.171875 173 184.492188 173 179.125 C 173 176.46875 172.03125 175.140625 170.101562 175.140625 C 168.277344 175.140625 166.539062 176.527344 164.882812 179.3125 C 163.222656 182.09375 162.394531 185.707031 162.394531 190.164062 Z M 162.394531 190.164062 " fill-opacity="1" fill-rule="nonzero"/><path fill="#ffffff" d="M 228.355469 197.84375 C 223.9375 202.050781 220.773438 204.792969 218.871094 206.066406 C 216.964844 207.339844 215.140625 207.976562 213.398438 207.976562 C 209.035156 207.976562 206.976562 204.117188 207.226562 196.394531 C 204.464844 200.347656 201.914062 203.269531 199.578125 205.15625 C 197.246094 207.035156 194.835938 207.976562 192.347656 207.976562 C 189.921875 207.976562 187.855469 206.835938 186.15625 204.550781 C 184.453125 202.269531 183.609375 199.46875 183.609375 196.144531 C 183.609375 191.996094 184.746094 188.039062 187.023438 184.269531 C 189.304688 180.507812 192.226562 177.464844 195.789062 175.140625 C 199.347656 172.816406 202.5 171.652344 205.234375 171.652344 C 208.6875 171.652344 211.105469 173.246094 212.488281 176.425781 L 220.953125 171.738281 L 223.277344 171.738281 L 219.621094 183.898438 C 217.742188 190.015625 216.800781 194.210938 216.800781 196.476562 C 216.800781 198.855469 217.640625 200.046875 219.328125 200.046875 C 220.402344 200.046875 221.589844 199.472656 222.886719 198.324219 C 224.1875 197.175781 226.007812 195.421875 228.355469 193.070312 Z M 198.027344 200.128906 C 200.789062 200.128906 203.390625 197.769531 205.839844 193.054688 C 208.285156 188.332031 209.507812 183.976562 209.507812 179.996094 C 209.507812 178.445312 209.15625 177.234375 208.472656 176.363281 C 207.777344 175.488281 206.851562 175.054688 205.695312 175.054688 C 202.929688 175.054688 200.3125 177.40625 197.84375 182.113281 C 195.371094 186.820312 194.132812 191.148438 194.132812 195.105469 C 194.132812 196.601562 194.5 197.8125 195.230469 198.738281 C 195.964844 199.667969 196.890625 200.128906 198.027344 200.128906 Z M 198.027344 200.128906 " fill-opacity="1" fill-rule="nonzero"/><path fill="#ffffff" d="M 259.308594 197.84375 C 252.375 204.652344 247.027344 208.058594 243.273438 208.058594 C 241.585938 208.058594 240.164062 207.34375 239.003906 205.921875 C 237.847656 204.496094 237.265625 202.730469 237.265625 200.625 C 237.265625 196.726562 239.351562 191.496094 243.523438 184.9375 C 241.476562 185.988281 239.242188 186.71875 236.8125 187.136719 C 235.015625 190.457031 232.195312 194.027344 228.359375 197.84375 L 227.40625 197.84375 L 227.40625 194.109375 C 229.558594 191.871094 231.507812 189.460938 233.25 186.886719 C 230.871094 185.832031 229.683594 184.269531 229.683594 182.199219 C 229.683594 180.0625 230.40625 177.789062 231.859375 175.363281 C 233.308594 172.945312 235.304688 171.734375 237.847656 171.734375 C 240.003906 171.734375 241.078125 172.839844 241.078125 175.054688 C 241.078125 176.796875 240.457031 179.289062 239.210938 182.527344 C 243.796875 182.027344 247.800781 178.515625 251.230469 171.984375 L 255 171.816406 L 251.144531 182.441406 C 249.542969 186.925781 248.507812 189.980469 248.039062 191.597656 C 247.570312 193.214844 247.335938 194.648438 247.335938 195.894531 C 247.335938 197.058594 247.605469 197.988281 248.140625 198.675781 C 248.679688 199.371094 249.40625 199.714844 250.316406 199.714844 C 251.3125 199.714844 252.265625 199.371094 253.175781 198.699219 C 254.085938 198.015625 256.132812 196.140625 259.3125 193.070312 L 259.3125 197.84375 Z M 259.308594 197.84375 " fill-opacity="1" fill-rule="nonzero"/><path fill="#ffffff" d="M 300 197.84375 C 293.621094 204.601562 288.148438 207.976562 283.589844 207.976562 C 281.742188 207.976562 280.25 207.324219 279.117188 206.023438 C 277.980469 204.722656 277.414062 202.980469 277.414062 200.792969 C 277.414062 197.832031 278.632812 193.308594 281.0625 187.222656 C 282.363281 183.957031 283.011719 181.875 283.011719 180.996094 C 283.011719 180.109375 282.664062 179.664062 281.976562 179.664062 C 281.589844 179.664062 281.078125 179.859375 280.445312 180.246094 C 279.859375 180.632812 279.183594 181.175781 278.410156 181.867188 C 277.722656 182.5 276.945312 183.277344 276.089844 184.1875 C 275.34375 184.96875 274.542969 185.851562 273.691406 186.84375 L 271.367188 189.546875 C 270.347656 190.789062 269.710938 192.101562 269.460938 193.488281 C 269.046875 195.839844 268.769531 198 268.632812 199.96875 C 268.546875 201.429688 268.507812 203.40625 268.507812 205.902344 L 259.351562 208.058594 C 259.046875 204.324219 258.894531 201.539062 258.894531 199.714844 C 258.894531 195.261719 259.410156 191.039062 260.449219 187.054688 C 261.484375 183.066406 263.148438 178.585938 265.441406 173.601562 L 275.550781 171.652344 C 273.421875 177.382812 272.027344 181.890625 271.367188 185.183594 C 275.898438 180.121094 279.488281 176.613281 282.152344 174.660156 C 284.808594 172.707031 287.175781 171.738281 289.242188 171.738281 C 290.648438 171.738281 291.824219 172.269531 292.757812 173.332031 C 293.699219 174.394531 294.167969 175.734375 294.167969 177.332031 C 294.167969 179.984375 292.980469 184.359375 290.605469 190.449219 C 288.976562 194.625 288.160156 197.335938 288.160156 198.589844 C 288.160156 200.253906 288.839844 201.085938 290.195312 201.085938 C 292.214844 201.085938 295.484375 198.414062 300 193.074219 Z M 300 197.84375 " fill-opacity="1" fill-rule="nonzero"/><path fill="#000000" d="M 177.453125 154.257812 C 177.453125 155.507812 176.984375 156.472656 176.046875 157.148438 C 175.109375 157.828125 173.796875 158.164062 172.109375 158.164062 C 170.460938 158.164062 169.191406 157.894531 168.296875 157.351562 C 167.410156 156.8125 166.832031 155.960938 166.5625 154.804688 L 168.515625 154.429688 C 168.691406 155.140625 169.070312 155.660156 169.65625 155.992188 C 170.25 156.328125 171.066406 156.492188 172.109375 156.492188 C 173.222656 156.492188 174.035156 156.320312 174.546875 155.976562 C 175.066406 155.632812 175.328125 155.117188 175.328125 154.429688 C 175.328125 153.910156 175.144531 153.488281 174.78125 153.164062 C 174.425781 152.84375 173.851562 152.570312 173.0625 152.351562 L 171.484375 151.945312 C 170.222656 151.613281 169.328125 151.289062 168.796875 150.976562 C 168.265625 150.664062 167.847656 150.285156 167.546875 149.835938 C 167.242188 149.390625 167.09375 148.84375 167.09375 148.195312 C 167.09375 146.988281 167.519531 146.070312 168.375 145.445312 C 169.238281 144.8125 170.488281 144.492188 172.125 144.492188 C 173.582031 144.492188 174.738281 144.75 175.59375 145.257812 C 176.457031 145.769531 177 146.59375 177.21875 147.726562 L 175.25 147.976562 C 175.125 147.382812 174.796875 146.929688 174.265625 146.617188 C 173.734375 146.304688 173.019531 146.148438 172.125 146.148438 C 171.132812 146.148438 170.40625 146.300781 169.9375 146.601562 C 169.46875 146.90625 169.234375 147.363281 169.234375 147.976562 C 169.234375 148.351562 169.328125 148.664062 169.515625 148.914062 C 169.710938 149.15625 170 149.359375 170.375 149.523438 C 170.757812 149.691406 171.566406 149.925781 172.796875 150.226562 C 173.960938 150.519531 174.800781 150.789062 175.3125 151.039062 C 175.820312 151.289062 176.222656 151.566406 176.515625 151.867188 C 176.816406 152.171875 177.046875 152.519531 177.203125 152.914062 C 177.367188 153.3125 177.453125 153.757812 177.453125 154.257812 Z M 177.453125 154.257812 " fill-opacity="1" fill-rule="nonzero"/><path fill="#000000" d="M 181.714844 151.242188 C 181.714844 153.003906 181.988281 154.3125 182.542969 155.164062 C 183.09375 156.007812 183.925781 156.429688 185.042969 156.429688 C 185.8125 156.429688 186.457031 156.21875 186.980469 155.789062 C 187.511719 155.363281 187.839844 154.710938 187.964844 153.835938 L 190.183594 153.976562 C 190.003906 155.25 189.464844 156.265625 188.558594 157.023438 C 187.652344 157.785156 186.496094 158.164062 185.089844 158.164062 C 183.246094 158.164062 181.839844 157.582031 180.871094 156.414062 C 179.902344 155.238281 179.417969 153.53125 179.417969 151.289062 C 179.417969 149.070312 179.902344 147.378906 180.871094 146.210938 C 181.847656 145.046875 183.25 144.460938 185.074219 144.460938 C 186.417969 144.460938 187.53125 144.8125 188.417969 145.507812 C 189.3125 146.207031 189.875 147.171875 190.105469 148.398438 L 187.855469 148.570312 C 187.738281 147.84375 187.449219 147.265625 186.980469 146.835938 C 186.519531 146.398438 185.863281 146.179688 185.011719 146.179688 C 183.84375 146.179688 183 146.566406 182.480469 147.335938 C 181.96875 148.109375 181.714844 149.410156 181.714844 151.242188 Z M 181.714844 151.242188 " fill-opacity="1" fill-rule="nonzero"/><path fill="#000000" d="M 192.507812 141.882812 L 192.507812 139.789062 L 194.695312 139.789062 L 194.695312 141.882812 Z M 192.507812 157.914062 L 192.507812 144.695312 L 194.695312 144.695312 L 194.695312 157.914062 Z M 192.507812 157.914062 " fill-opacity="1" fill-rule="nonzero"/><path fill="#000000" d="M 206.332031 157.914062 L 201.863281 151.882812 L 200.253906 153.210938 L 200.253906 157.914062 L 198.066406 157.914062 L 198.066406 139.789062 L 200.253906 139.789062 L 200.253906 151.117188 L 206.050781 144.695312 L 208.613281 144.695312 L 203.269531 150.382812 L 208.894531 157.914062 Z M 206.332031 157.914062 " fill-opacity="1" fill-rule="nonzero"/><path fill="#000000" d="M 210.53125 141.882812 L 210.53125 139.789062 L 212.71875 139.789062 L 212.71875 141.882812 Z M 210.53125 157.914062 L 210.53125 144.695312 L 212.71875 144.695312 L 212.71875 157.914062 Z M 210.53125 157.914062 " fill-opacity="1" fill-rule="nonzero"/><path fill="#000000" d="M 221.15625 157.820312 C 220.4375 158.015625 219.695312 158.117188 218.9375 158.117188 C 217.1875 158.117188 216.3125 157.117188 216.3125 155.117188 L 216.3125 146.304688 L 214.78125 146.304688 L 214.78125 144.695312 L 216.390625 144.695312 L 217.046875 141.742188 L 218.5 141.742188 L 218.5 144.695312 L 220.9375 144.695312 L 220.9375 146.304688 L 218.5 146.304688 L 218.5 154.632812 C 218.5 155.269531 218.601562 155.71875 218.8125 155.976562 C 219.019531 156.238281 219.378906 156.367188 219.890625 156.367188 C 220.179688 156.367188 220.601562 156.3125 221.15625 156.195312 Z M 221.15625 157.820312 " fill-opacity="1" fill-rule="nonzero"/></svg>