<svg xmlns="http://www.w3.org/2000/svg" xmlns:xlink="http://www.w3.org/1999/xlink" width="40" zoomAndPan="magnify" viewBox="0 0 30 30.000001" height="40" preserveAspectRatio="xMidYMid meet" version="1.0"><defs><clipPath id="489667b69a"><path d="M 0.484375 0 L 29.515625 0 L 29.515625 24 L 0.484375 24 Z M 0.484375 0 " clip-rule="nonzero"/></clipPath><clipPath id="015685b15f"><path d="M 7 18 L 18 18 L 18 29.03125 L 7 29.03125 Z M 7 18 " clip-rule="nonzero"/></clipPath></defs><g clip-path="url(#489667b69a)"><path fill="#e25a1c" d="M 22.554688 20.136719 L 22.425781 19.855469 L 19.570312 14.355469 C 19.472656 14.171875 19.484375 14.0625 19.613281 13.90625 L 24.132812 8.519531 C 24.183594 8.457031 24.230469 8.386719 24.253906 8.277344 L 22.933594 8.625 L 17.453125 10.105469 C 17.285156 10.152344 17.207031 10.101562 17.121094 9.957031 L 14.011719 4.695312 C 13.957031 4.605469 13.898438 4.519531 13.785156 4.4375 L 13.53125 5.84375 L 12.664062 10.804688 L 12.574219 11.34375 C 12.558594 11.515625 12.472656 11.574219 12.320312 11.625 L 5.871094 13.695312 C 5.777344 13.726562 5.6875 13.761719 5.585938 13.855469 L 10.890625 15.996094 L 10.734375 16.121094 L 7.433594 18.289062 C 7.3125 18.382812 7.1875 18.394531 7.050781 18.320312 L 3.105469 16.535156 C 2.515625 16.269531 1.984375 15.910156 1.570312 15.398438 C 0.636719 14.234375 0.820312 12.914062 2.066406 12.113281 C 2.472656 11.847656 2.9375 11.648438 3.398438 11.496094 L 9.734375 9.453125 C 9.90625 9.398438 9.992188 9.316406 10.027344 9.121094 L 10.886719 4.160156 C 11.046875 3.273438 11.128906 2.363281 11.554688 1.558594 C 11.714844 1.25 11.910156 0.941406 12.144531 0.679688 C 12.980469 -0.265625 14.152344 -0.300781 15.039062 0.597656 C 15.339844 0.902344 15.601562 1.261719 15.820312 1.628906 L 18.710938 6.507812 C 18.824219 6.699219 18.925781 6.738281 19.136719 6.683594 L 26.21875 4.773438 C 26.703125 4.640625 27.195312 4.59375 27.695312 4.683594 C 28.78125 4.890625 29.257812 5.734375 28.890625 6.796875 C 28.722656 7.28125 28.433594 7.695312 28.113281 8.082031 L 23.171875 13.980469 C 23.035156 14.140625 23.035156 14.257812 23.125 14.4375 L 26.070312 20.101562 C 26.304688 20.554688 26.484375 21.023438 26.488281 21.542969 C 26.5 22.722656 25.648438 23.691406 24.492188 23.863281 C 23.847656 23.957031 23.246094 23.816406 22.640625 23.628906 L 18.195312 22.253906 C 18.058594 22.214844 18.003906 22.160156 17.980469 22.007812 L 17.445312 18.835938 C 17.441406 18.808594 17.449219 18.777344 17.453125 18.710938 L 22.554688 20.140625 " fill-opacity="1" fill-rule="evenodd"/></g><path fill="#e25a1c" d="M 10.886719 15.996094 L 11.828125 16.414062 L 10.78125 24.867188 L 16.496094 18.4375 L 17.457031 18.710938 L 18.644531 22.371094 L 17.101562 21.820312 L 13.113281 26.195312 C 13.113281 26.195312 11.328125 28.070312 10.363281 27.753906 C 9.394531 27.4375 8.578125 26.5625 8.488281 24.996094 C 8.398438 23.433594 7.988281 18.964844 7.988281 18.964844 L 6.039062 17.539062 Z M 10.886719 15.996094 " fill-opacity="1" fill-rule="nonzero"/><g clip-path="url(#015685b15f)"><path fill="#e25a1c" d="M 7.988281 18.964844 C 7.988281 18.964844 7.128906 28.636719 8.804688 28.957031 C 10.480469 29.277344 8.625 28.910156 8.625 28.910156 C 8.625 28.910156 9.574219 30.015625 13.339844 25.917969 L 17.101562 21.820312 L 9.574219 26.332031 C 9.757812 26.101562 10.527344 18.277344 10.527344 18.277344 Z M 7.988281 18.964844 " fill-opacity="1" fill-rule="nonzero"/></g></svg>